<svg xmlns="http://www.w3.org/2000/svg" width="1200" height="760" viewBox="0 0 1200 760">
<defs>
  <linearGradient id="jg" x1="0" y1="0" x2="1" y2="1"><stop offset="0" stop-color="#071018"/><stop offset="1" stop-color="#0b1117"/></linearGradient>
  <radialGradient id="jr" cx="82%" cy="18%" r="72%"><stop offset="0" stop-color="#0e7490" stop-opacity=".34"/><stop offset="1" stop-color="#071018" stop-opacity="0"/></radialGradient>
  <linearGradient id="jp" x1="0" y1="0" x2="0" y2="1"><stop offset="0" stop-color="#143647"/><stop offset="1" stop-color="#09131b"/></linearGradient>
  <clipPath id="jc"><rect width="1200" height="760" rx="30"/></clipPath>
</defs>
<g clip-path="url(#jc)">
  <rect width="1200" height="760" fill="url(#jg)"/>
  <rect width="1200" height="760" fill="url(#jr)"/>
  <circle cx="1025" cy="145" r="170" fill="#22d3ee" opacity=".05"/>
  <text x="76" y="90" font-family="Arial" font-size="14" font-weight="700" letter-spacing="3.5" fill="#67e8f9">MOBILE / SOCIAL PLATFORM</text>
  <text x="76" y="185" font-family="Arial" font-size="54" font-weight="700" fill="#f8fafc">JODINEE</text>
  <text x="78" y="230" font-family="Arial" font-size="20" fill="#86a6b5">Verified Nepali matrimony · Matching · Chat</text>

  <g transform="translate(610 82)">
    <rect x="0" y="0" width="250" height="500" rx="34" fill="#050a0f" stroke="#fff" stroke-opacity=".16"/>
    <rect x="14" y="18" width="222" height="464" rx="25" fill="url(#jp)"/>
    <rect x="82" y="9" width="86" height="8" rx="4" fill="#334b57"/>
    <circle cx="125" cy="126" r="66" fill="#1f596b"/>
    <circle cx="125" cy="108" r="26" fill="#8bd8e7"/>
    <path d="M74 171c12-38 90-38 102 0" fill="#8bd8e7"/>
    <text x="125" y="225" text-anchor="middle" font-family="Arial" font-size="18" font-weight="700" fill="#fff">Profile discovery</text>
    <text x="125" y="252" text-anchor="middle" font-family="Arial" font-size="12" fill="#8daab5">Verified profiles · Preferences</text>
    <rect x="34" y="292" width="76" height="76" rx="38" fill="#0e7490" opacity=".85"/>
    <text x="72" y="338" text-anchor="middle" font-family="Arial" font-size="24" fill="#fff">×</text>
    <rect x="140" y="292" width="76" height="76" rx="38" fill="#0891b2"/>
    <text x="178" y="338" text-anchor="middle" font-family="Arial" font-size="24" fill="#fff">♥</text>
    <rect x="34" y="405" width="182" height="42" rx="21" fill="#0f2632" stroke="#67e8f9" stroke-opacity=".28"/>
    <text x="125" y="431" text-anchor="middle" font-family="Arial" font-size="12" fill="#bfeaf1">MATCH · CONNECT</text>
  </g>

  <g transform="translate(885 128)">
    <rect x="0" y="0" width="238" height="410" rx="30" fill="#071018" stroke="#fff" stroke-opacity=".15"/>
    <rect x="18" y="24" width="202" height="362" rx="22" fill="#0c1b24"/>
    <text x="38" y="62" font-family="Arial" font-size="14" font-weight="700" fill="#fff">Messages</text>
    <circle cx="48" cy="104" r="18" fill="#155e75"/>
    <rect x="78" y="88" width="116" height="13" rx="6" fill="#d5eef3" opacity=".82"/>
    <rect x="78" y="112" width="82" height="9" rx="4" fill="#567783"/>
    <circle cx="48" cy="166" r="18" fill="#0e7490"/>
    <rect x="78" y="150" width="104" height="13" rx="6" fill="#d5eef3" opacity=".82"/>
    <rect x="78" y="174" width="95" height="9" rx="4" fill="#567783"/>
    <rect x="36" y="228" width="150" height="52" rx="18" fill="#12303d"/>
    <text x="50" y="251" font-family="Arial" font-size="11" fill="#cbe7ef">Interest accepted</text>
    <text x="50" y="269" font-family="Arial" font-size="10" fill="#6fa3b4">Start a conversation</text>
    <rect x="36" y="322" width="166" height="38" rx="19" fill="#0891b2"/>
    <text x="119" y="346" text-anchor="middle" font-family="Arial" font-size="11" font-weight="700" fill="#fff">OPEN CHAT</text>
  </g>

  <rect x="76" y="590" width="120" height="38" rx="19" fill="#0f1720" stroke="#2a3d49"/><text x="93" y="615" font-family="Arial" font-size="14" fill="#cbe7ef">FLUTTER</text>
  <rect x="208" y="590" width="120" height="38" rx="19" fill="#0f1720" stroke="#2a3d49"/><text x="225" y="615" font-family="Arial" font-size="14" fill="#cbe7ef">LARAVEL</text>
  <rect x="340" y="590" width="120" height="38" rx="19" fill="#0f1720" stroke="#2a3d49"/><text x="357" y="615" font-family="Arial" font-size="14" fill="#cbe7ef">FIREBASE</text>
  <text x="76" y="704" font-family="Arial" font-size="13" letter-spacing="2.6" fill="#526d7a">PROJECT-SPECIFIC CASE STUDY VISUAL · DEEPAK BHATTARAI</text>
</g>
</svg>